<?xml version="1.0" encoding="UTF-8" standalone="no"?>
<svg
   version="1.1"
   id="Layer_1"
   x="0px"
   y="0px"
   width="100%"
   viewBox="0 0 948 721"
   enable-background="new 0 0 948 721"
   xml:space="preserve"
   sodipodi:docname="bidule.svg"
   inkscape:version="1.3.2 (091e20e, 2023-11-25)"
   xmlns:inkscape="http://www.inkscape.org/namespaces/inkscape"
   xmlns:sodipodi="http://sodipodi.sourceforge.net/DTD/sodipodi-0.dtd"
   xmlns="http://www.w3.org/2000/svg"
   xmlns:svg="http://www.w3.org/2000/svg"><defs
   id="defs7" /><sodipodi:namedview
   id="namedview7"
   pagecolor="#ffffff"
   bordercolor="#000000"
   borderopacity="0.25"
   inkscape:showpageshadow="2"
   inkscape:pageopacity="0.0"
   inkscape:pagecheckerboard="0"
   inkscape:deskcolor="#d1d1d1"
   inkscape:zoom="0.80859917"
   inkscape:cx="474.27702"
   inkscape:cy="360.5"
   inkscape:window-width="1440"
   inkscape:window-height="831"
   inkscape:window-x="0"
   inkscape:window-y="0"
   inkscape:window-maximized="1"
   inkscape:current-layer="Layer_1" />
<path
   fill="#000000"
   opacity="1.000000"
   stroke="none"
   d=" M512.000000,722.000000   C341.333374,722.000000 171.166763,722.000000 1.000114,722.000000   C1.000076,481.666779 1.000076,241.333572 1.000038,1.000275   C316.999786,1.000184 632.999573,1.000184 948.999512,1.000092   C948.999634,241.333054 948.999634,481.666107 948.999817,721.999573   C803.500000,722.000000 658.000000,722.000000 512.000000,722.000000  M519.403320,442.067352   C526.673706,433.807678 533.857788,425.470032 541.234741,417.306671   C552.069519,405.316925 563.263855,393.642914 573.811890,381.409271   C576.723999,378.031830 582.051453,375.449799 580.831787,369.264343   C578.050049,368.604004 575.405029,367.925598 572.737488,367.351318   C558.198303,364.221222 543.708008,360.813263 529.077637,358.187927   C524.678101,357.398438 523.901001,355.828003 523.925781,351.901733   C524.075134,328.246338 524.142334,304.587952 523.880066,280.934540   C523.827515,276.200348 525.316956,273.038147 528.590820,269.758087   C548.789673,249.521591 568.797546,229.093842 588.763245,208.626602   C590.175598,207.178787 590.741821,204.905518 592.071533,202.287369   C578.502563,199.361755 566.036987,196.751831 553.607910,193.978027   C527.753967,188.208084 501.908752,182.397995 476.088562,176.479660   C472.239960,175.597519 469.281769,175.851059 466.379242,179.019318   C455.878998,190.480698 445.185913,201.767517 434.459595,213.019135   C424.845398,223.104141 415.032288,233.000076 405.468994,243.132370   C404.168243,244.510468 402.889893,246.929550 403.167847,248.607056   C404.620880,257.376404 406.611481,266.055542 408.355438,274.777985   C411.591827,290.964874 414.796936,307.158051 417.996124,323.352325   C420.882172,337.961517 423.818420,352.561737 426.518433,367.205383   C426.852753,369.018616 426.530792,371.669312 425.397522,372.926392   C413.464752,386.162506 401.256744,399.150177 389.272369,412.340576   C387.858002,413.897278 387.326691,416.256256 386.217560,418.599213   C403.261505,422.242004 419.052124,425.668060 434.865723,428.984619   C458.289154,433.897247 481.700623,438.876801 505.186829,443.471802   C509.609375,444.337067 514.646423,447.689575 519.403320,442.067352  z"
   id="path1"
   style="fill:none" />
<path
   fill="#00FFFF"
   opacity="1.000000"
   stroke="none"
   d=" M519.149414,442.355957   C514.646423,447.689575 509.609375,444.337067 505.186829,443.471802   C481.700623,438.876801 458.289154,433.897247 434.865723,428.984619   C419.052124,425.668060 403.261505,422.242004 386.217560,418.599213   C387.326691,416.256256 387.858002,413.897278 389.272369,412.340576   C401.256744,399.150177 413.464752,386.162506 425.397522,372.926392   C426.530792,371.669312 426.852753,369.018616 426.518433,367.205383   C423.818420,352.561737 420.882172,337.961517 417.996124,323.352325   C414.796936,307.158051 411.591827,290.964874 408.355438,274.777985   C406.611481,266.055542 404.620880,257.376404 403.167847,248.607056   C402.889893,246.929550 404.168243,244.510468 405.468994,243.132370   C415.032288,233.000076 424.845398,223.104141 434.459595,213.019135   C445.185913,201.767517 455.878998,190.480698 466.379242,179.019318   C469.281769,175.851059 472.239960,175.597519 476.088562,176.479660   C501.908752,182.397995 527.753967,188.208084 553.607910,193.978027   C566.036987,196.751831 578.502563,199.361755 592.071533,202.287369   C590.741821,204.905518 590.175598,207.178787 588.763245,208.626602   C568.797546,229.093842 548.789673,249.521591 528.590820,269.758087   C525.316956,273.038147 523.827515,276.200348 523.880066,280.934540   C524.142334,304.587952 524.075134,328.246338 523.925781,351.901733   C523.901001,355.828003 524.678101,357.398438 529.077637,358.187927   C543.708008,360.813263 558.198303,364.221222 572.737488,367.351318   C575.405029,367.925598 578.050049,368.604004 580.831787,369.264343   C582.051453,375.449799 576.723999,378.031830 573.811890,381.409271   C563.263855,393.642914 552.069519,405.316925 541.234741,417.306671   C533.857788,425.470032 526.673706,433.807678 519.149414,442.355957  M518.983765,342.056519   C518.935608,325.042908 518.887390,308.029297 518.969177,290.085083   C518.981995,283.777649 518.994873,277.470184 519.642944,270.852142   C520.375488,269.787933 520.970093,268.588684 521.860779,267.679413   C540.344788,248.808731 558.847168,229.955933 577.402344,211.155212   C578.894714,209.643051 580.795288,208.533752 582.506226,207.237259   C582.241760,206.769547 581.977295,206.301834 581.712830,205.834106   C576.852783,204.879166 571.964661,204.047775 567.137451,202.948990   C538.178650,196.357422 509.227936,189.729904 480.289886,183.047974   C475.217255,181.876663 470.808014,181.926163 467.512482,186.887436   C465.713409,189.595856 463.389954,191.989197 461.114349,194.342255   C449.001495,206.867401 436.801971,219.308746 424.690491,231.835205   C419.870361,236.820526 415.179901,241.932114 410.484039,247.035568   C409.874146,247.698410 409.090057,248.758286 409.232971,249.462555   C409.952118,253.006744 410.952148,256.493958 411.971405,260.863739   C411.987061,262.020844 411.821228,263.214600 412.046631,264.329315   C414.197083,274.965332 416.408844,285.588959 418.613159,296.214020   C420.121063,303.482117 421.645050,310.746826 423.016571,318.850464   C424.010925,324.048645 424.963409,329.255280 426.008820,334.443176   C427.928192,343.968353 429.902283,353.482452 432.126953,363.620361   C432.511078,366.334442 431.073334,370.128479 435.998993,370.916840   C434.974487,372.038574 433.958313,373.168030 432.924133,374.280762   C427.185394,380.455322 421.413055,386.598938 415.708435,392.804779   C409.149597,399.939819 402.649384,407.128784 395.825226,414.622070   C402.291382,416.159943 408.164093,417.693451 414.096344,418.944641   C444.329590,425.321136 474.555603,431.737488 504.850800,437.807404   C508.542572,438.547089 512.715637,441.028748 516.532288,436.184082   C523.333923,427.550415 530.872742,419.489838 538.232788,411.306122   C545.736694,402.962463 553.444580,394.802399 560.968445,386.476349   C564.763184,382.276978 568.348267,377.888214 572.434998,373.109314   C555.627563,369.623627 539.629700,366.366791 523.675232,362.909851   C521.934326,362.532715 520.443237,361.002991 518.968506,359.079834   C518.925232,353.715118 518.881897,348.350433 518.983765,342.056519  z"
   id="path2" />
<path
   fill="#6F6F6F"
   opacity="1.000000"
   stroke="none"
   d=" M435.998169,370.150848   C431.073334,370.128479 432.511078,366.334442 432.047241,362.850586   C433.483643,352.479126 428.795685,343.916412 427.312500,334.815002   C426.387665,329.139618 424.575714,323.608765 423.161865,318.013062   C421.645050,310.746826 420.121063,303.482117 418.613159,296.214020   C416.408844,285.588959 414.197083,274.965332 412.046631,264.329315   C411.821228,263.214600 411.987061,262.020844 411.969452,259.972534   C411.967499,255.490189 411.967499,251.899078 411.967499,248.409821   C421.521393,247.436661 440.582977,251.074051 454.782715,255.249985   C468.711548,259.346252 482.917297,262.507446 497.021088,265.999878   C504.328064,267.809235 511.677460,269.447296 519.007690,271.162750   C518.994873,277.470184 518.981995,283.777649 518.590088,290.831665   C518.144226,307.984436 518.066650,324.390625 518.046021,340.796814   C518.045105,341.526123 518.562622,342.256073 518.838623,342.985718   C518.881897,348.350433 518.925232,353.715118 518.474487,359.541595   C516.165649,359.919769 514.284485,360.117676 512.546082,359.708862   C495.861328,355.784973 479.156677,351.927765 462.570557,347.617310   C459.305603,346.768829 457.620605,347.649170 455.756012,349.762939   C450.529999,355.687347 445.314331,361.622559 439.976196,367.444977   C438.921356,368.595520 437.337860,369.261414 435.998169,370.150848  z"
   id="path3" />
<path
   fill="#000000"
   opacity="1.000000"
   stroke="none"
   d=" M435.998596,370.533844   C437.337860,369.261414 438.921356,368.595520 439.976196,367.444977   C445.314331,361.622559 450.529999,355.687347 455.756012,349.762939   C457.620605,347.649170 459.305603,346.768829 462.570557,347.617310   C479.156677,351.927765 495.861328,355.784973 512.546082,359.708862   C514.284485,360.117676 516.165649,359.919769 518.408386,360.005615   C520.443237,361.002991 521.934326,362.532715 523.675232,362.909851   C539.629700,366.366791 555.627563,369.623627 572.434998,373.109314   C568.348267,377.888214 564.763184,382.276978 560.968445,386.476349   C553.444580,394.802399 545.736694,402.962463 538.232788,411.306122   C530.872742,419.489838 523.333923,427.550415 516.532288,436.184082   C512.715637,441.028748 508.542572,438.547089 504.850800,437.807404   C474.555603,431.737488 444.329590,425.321136 414.096344,418.944641   C408.164093,417.693451 402.291382,416.159943 395.825226,414.622070   C402.649384,407.128784 409.149597,399.939819 415.708435,392.804779   C421.413055,386.598938 427.185394,380.455322 432.924133,374.280762   C433.958313,373.168030 434.974487,372.038574 435.998596,370.533844  z"
   id="path4"
   style="fill:none" />
<path
   fill="#000000"
   opacity="1.000000"
   stroke="none"
   d=" M519.325317,271.007446   C511.677460,269.447296 504.328064,267.809235 497.021088,265.999878   C482.917297,262.507446 468.711548,259.346252 454.782715,255.249985   C440.582977,251.074051 421.521393,247.436661 411.967499,248.409821   C411.967499,251.899078 411.967499,255.490189 411.910522,259.541260   C410.952148,256.493958 409.952118,253.006744 409.232971,249.462555   C409.090057,248.758286 409.874146,247.698410 410.484039,247.035568   C415.179901,241.932114 419.870361,236.820526 424.690491,231.835205   C436.801971,219.308746 449.001495,206.867401 461.114349,194.342255   C463.389954,191.989197 465.713409,189.595856 467.512482,186.887436   C470.808014,181.926163 475.217255,181.876663 480.289886,183.047974   C509.227936,189.729904 538.178650,196.357422 567.137451,202.948990   C571.964661,204.047775 576.852783,204.879166 581.712830,205.834106   C581.977295,206.301834 582.241760,206.769547 582.506226,207.237259   C580.795288,208.533752 578.894714,209.643051 577.402344,211.155212   C558.847168,229.955933 540.344788,248.808731 521.860779,267.679413   C520.970093,268.588684 520.375488,269.787933 519.325317,271.007446  z"
   id="path5"
   style="fill:none" />
<path
   fill="#000000"
   opacity="1.000000"
   stroke="none"
   d=" M423.089233,318.431763   C424.575714,323.608765 426.387665,329.139618 427.312500,334.815002   C428.795685,343.916412 433.483643,352.479126 431.910522,362.541016   C429.902283,353.482452 427.928192,343.968353 426.008820,334.443176   C424.963409,329.255280 424.010925,324.048645 423.089233,318.431763  z"
   id="path6" />
<path
   fill="#000000"
   opacity="1.000000"
   stroke="none"
   d=" M518.911194,342.521118   C518.562622,342.256073 518.045105,341.526123 518.046021,340.796814   C518.066650,324.390625 518.144226,307.984436 518.525146,291.296997   C518.887390,308.029297 518.935608,325.042908 518.911194,342.521118  z"
   id="path7" />
</svg>
